<?xml version="1.0" encoding="UTF-8" ?>
<!DOCTYPE svg PUBLIC "-//W3C//DTD SVG 1.1//EN" "http://www.w3.org/Graphics/SVG/1.1/DTD/svg11.dtd">
<svg width="228pt" height="114pt" viewBox="0 0 228 114" version="1.1" xmlns="http://www.w3.org/2000/svg">
<path fill="#ffffff" d=" M 0.00 0.00 L 228.00 0.00 L 228.00 114.00 L 0.00 114.00 L 0.00 0.00 Z" />
<path fill="#797878" d=" M 11.25 21.25 C 17.21 15.48 22.80 9.30 28.99 3.77 C 35.21 9.27 40.78 15.48 46.75 21.25 C 49.52 24.21 53.11 26.63 54.58 30.57 C 50.42 29.02 47.92 25.15 44.77 22.27 C 39.45 17.17 34.55 11.64 29.01 6.78 C 23.46 11.61 18.57 17.16 13.26 22.24 C 10.10 25.13 7.59 29.01 3.43 30.57 C 4.89 26.64 8.48 24.21 11.25 21.25 Z" />
<path fill="#797878" d=" M 83.36 15.50 C 79.06 10.93 84.26 3.27 90.03 4.07 C 95.38 4.35 99.13 11.19 95.56 15.55 C 95.08 13.30 95.03 10.93 94.23 8.76 C 92.23 4.97 85.91 5.25 84.29 9.23 C 83.76 11.28 83.69 13.41 83.36 15.50 Z" />
<path fill="#797878" d=" M 130.21 17.02 C 129.47 7.87 140.71 0.79 148.68 5.31 C 154.79 8.19 157.43 15.82 154.99 22.01 C 153.83 24.81 151.41 26.75 149.24 28.73 C 160.30 31.70 168.56 42.51 168.14 54.00 C 167.63 54.00 166.61 54.00 166.10 54.00 C 166.20 46.88 163.34 39.67 157.69 35.18 C 150.47 29.09 139.33 28.31 131.26 33.14 C 123.90 37.28 119.69 45.66 119.90 54.00 C 119.39 54.00 118.37 54.00 117.86 54.00 C 117.42 42.45 125.75 31.78 136.75 28.65 C 133.11 25.87 129.71 21.95 130.21 17.02 Z" />
<path fill="#ffffff" d=" M 140.34 6.41 C 148.22 4.05 156.26 12.61 153.39 20.33 C 151.25 28.20 139.88 30.56 134.80 24.18 C 129.37 18.51 132.67 8.02 140.34 6.41 Z" />
<path fill="#797878" d=" M 41.00 8.00 C 43.67 8.00 46.33 8.00 49.00 8.00 C 49.00 12.00 49.00 16.00 49.00 20.00 C 48.50 20.00 47.50 20.00 47.00 20.00 C 47.00 16.67 47.00 13.33 47.00 10.00 C 45.67 10.00 44.34 10.00 43.00 10.00 C 43.00 11.33 43.00 12.67 43.00 14.00 C 42.50 14.00 41.50 14.00 41.00 14.00 C 41.00 12.00 41.00 10.00 41.00 8.00 Z" />
<path fill="#797878" d=" M 96.75 16.71 C 100.11 13.57 105.63 12.35 109.21 15.84 C 107.67 17.89 105.79 19.63 103.98 21.42 C 105.13 23.26 106.28 25.11 107.40 26.98 C 109.32 27.18 111.27 27.23 113.16 27.70 C 114.62 30.73 114.21 34.46 113.54 37.66 C 111.85 39.08 109.42 38.65 107.38 39.04 C 106.13 41.02 104.82 42.97 103.50 44.91 C 103.89 47.30 104.47 49.68 104.46 52.12 C 104.14 54.74 100.74 53.91 98.88 53.96 C 96.46 54.00 96.19 51.26 95.46 49.59 C 91.47 50.33 87.41 50.35 83.42 49.64 C 82.60 51.18 82.36 53.89 80.09 53.93 C 78.23 53.91 75.36 54.71 74.37 52.63 C 74.14 50.03 74.84 47.46 75.25 44.91 C 72.50 41.48 70.58 37.46 70.11 33.05 C 66.13 31.98 60.15 34.70 57.80 30.23 C 56.80 28.75 57.06 26.97 58.03 25.56 C 58.99 27.88 59.81 30.46 62.28 31.62 C 61.65 28.84 59.71 25.55 61.88 22.96 C 63.03 20.98 65.97 20.81 67.32 22.67 C 69.52 25.14 67.98 28.43 67.17 31.13 C 68.22 31.00 69.27 30.88 70.32 30.75 C 71.58 25.10 75.22 19.96 80.59 17.57 C 85.60 14.98 91.45 15.32 96.75 16.71 Z" />
<path fill="#ffffff" d=" M 97.46 18.95 C 99.81 16.37 103.07 15.11 106.56 15.75 C 104.86 17.75 103.09 19.67 101.32 21.59 C 103.19 23.88 104.82 26.34 106.24 28.93 C 108.22 29.02 110.21 29.10 112.19 29.19 C 112.19 31.68 112.18 34.16 112.17 36.65 C 110.19 36.71 108.21 36.77 106.23 36.83 C 104.87 39.43 103.28 41.91 101.42 44.18 C 101.87 46.84 102.34 49.49 102.81 52.15 C 101.29 52.14 99.77 52.14 98.25 52.12 C 97.85 50.45 97.47 48.77 97.09 47.09 C 92.08 48.51 86.82 48.47 81.79 47.19 C 81.36 48.72 80.98 50.26 80.43 51.76 C 79.00 52.25 77.46 52.21 75.98 52.39 C 76.43 49.65 76.92 46.91 77.37 44.16 C 74.37 40.82 71.83 36.60 72.33 31.93 C 72.81 24.71 79.10 18.95 86.04 17.85 C 89.88 16.97 93.73 18.12 97.46 18.95 Z" />
<path fill="#ffffff" d=" M 64.42 23.35 C 65.53 22.48 66.57 25.05 66.52 25.97 C 66.71 27.55 65.77 28.90 64.90 30.11 C 62.63 28.74 61.73 24.77 64.42 23.35 Z" />
<path fill="#797878" d=" M 100.31 27.30 C 102.90 26.27 103.80 31.17 100.97 30.87 C 98.62 31.50 97.82 27.55 100.31 27.30 Z" />
<path fill="#797878" d=" M 177.29 27.35 C 181.75 25.52 187.48 28.96 187.05 33.98 C 187.59 39.63 180.43 43.04 176.01 39.98 C 171.38 37.18 172.08 29.08 177.29 27.35 Z" />
<path fill="#797878" d=" M 197.32 27.35 C 201.77 25.53 207.49 28.97 207.05 33.99 C 207.58 39.65 200.38 43.05 195.97 39.96 C 191.35 37.12 192.09 29.07 197.32 27.35 Z" />
<path fill="#797878" d=" M 217.30 27.35 C 222.95 24.67 230.72 32.30 226.33 37.39 C 224.22 41.76 217.47 42.37 214.50 38.63 C 211.49 35.17 212.84 28.86 217.30 27.35 Z" />
<path fill="#797878" d=" M 9.00 29.00 C 9.50 29.00 10.50 29.00 11.00 29.00 C 11.01 36.67 10.99 44.33 11.00 52.00 C 15.00 52.00 19.00 52.00 23.00 52.00 C 23.00 47.33 23.00 42.67 23.00 38.00 C 27.00 38.00 31.00 38.00 35.00 38.00 C 35.00 42.67 35.00 47.33 35.00 52.00 C 39.00 52.00 43.00 52.00 47.00 52.00 C 47.00 44.33 47.00 36.67 47.00 29.00 C 47.50 29.00 48.50 29.00 49.00 29.00 C 49.00 37.33 49.00 45.67 49.00 54.00 C 43.67 54.00 38.33 54.00 33.00 54.00 C 33.00 49.33 33.00 44.67 33.00 40.00 C 30.33 40.00 27.67 40.00 25.00 40.00 C 25.00 44.67 25.00 49.33 25.00 54.00 C 19.67 54.00 14.33 54.00 9.00 54.00 C 9.00 45.67 9.00 37.33 9.00 29.00 Z" />
<path fill="#ffffff" d=" M 178.19 29.17 C 181.39 27.99 185.43 30.41 185.05 34.01 C 185.45 37.91 180.73 40.29 177.52 38.55 C 173.77 36.76 174.14 30.34 178.19 29.17 Z" />
<path fill="#ffffff" d=" M 198.19 29.17 C 201.41 27.98 205.45 30.43 205.05 34.04 C 205.47 38.21 200.06 40.52 196.94 38.19 C 193.73 36.04 194.40 30.28 198.19 29.17 Z" />
<path fill="#ffffff" d=" M 218.17 29.17 C 221.36 27.99 225.40 30.37 225.05 33.97 C 225.53 38.17 220.08 40.55 216.93 38.18 C 213.74 36.03 214.41 30.30 218.17 29.17 Z" />
<path fill="#cc0101" d=" M 28.90 59.59 C 36.04 66.27 42.75 73.40 49.75 80.22 C 51.58 82.12 53.88 83.82 54.53 86.53 C 51.59 85.80 49.82 83.21 47.73 81.26 C 41.45 75.04 35.36 68.63 28.90 62.60 C 21.86 69.66 14.78 76.68 7.77 83.77 C 6.58 85.03 5.19 86.10 3.47 86.52 C 4.04 84.06 6.04 82.44 7.73 80.73 C 14.82 73.72 21.84 66.64 28.90 59.59 Z" />
<path fill="#cc0101" d=" M 83.48 71.61 C 78.97 67.64 83.52 59.88 88.97 60.01 C 94.76 59.45 99.05 66.29 96.32 71.38 C 94.13 70.45 95.19 67.79 94.58 66.00 C 93.77 62.19 88.34 60.86 85.65 63.58 C 83.27 65.53 84.15 68.96 83.48 71.61 Z" />
<path fill="#cc0101" d=" M 130.11 72.95 C 129.54 65.58 136.84 59.09 144.07 59.98 C 151.88 60.21 157.65 68.62 155.68 76.09 C 155.07 79.82 152.11 82.44 149.37 84.73 C 160.58 87.53 169.10 98.86 168.03 110.47 C 167.56 110.25 166.60 109.82 166.13 109.60 C 165.76 103.66 163.97 97.64 159.69 93.31 C 152.70 85.59 140.22 83.82 131.35 89.28 C 124.13 93.36 120.10 101.47 119.87 109.60 C 119.40 109.82 118.44 110.25 117.97 110.47 C 116.90 98.86 125.43 87.52 136.64 84.73 C 132.93 81.95 129.56 77.91 130.11 72.95 Z" />
<path fill="#ffffff" d=" M 140.41 62.51 C 148.16 60.18 156.14 68.66 153.30 76.25 C 151.21 84.11 139.88 86.46 134.84 80.08 C 129.49 74.43 132.80 64.06 140.41 62.51 Z" />
<path fill="#cc0101" d=" M 41.00 64.00 C 43.67 64.00 46.33 64.00 49.00 64.00 C 49.00 68.00 49.00 72.00 49.00 76.00 C 48.50 76.00 47.50 76.00 47.00 76.00 C 47.00 72.67 47.00 69.33 47.00 66.00 C 45.67 66.00 44.33 66.00 43.00 66.00 C 43.00 67.33 43.00 68.67 43.00 70.00 C 42.50 70.00 41.50 70.00 41.00 70.00 C 41.00 68.00 41.00 66.00 41.00 64.00 Z" />
<path fill="#cc0101" d=" M 96.69 72.54 C 99.96 69.30 106.21 67.96 109.34 72.03 C 107.80 74.06 105.87 75.73 104.02 77.45 C 105.26 79.25 106.44 81.10 107.53 83.00 C 109.57 83.33 112.10 82.58 113.71 84.21 C 114.18 87.34 114.27 90.63 113.64 93.75 C 112.00 95.30 109.53 94.71 107.48 95.00 C 106.30 97.02 104.88 98.90 103.77 100.96 C 103.64 103.86 105.55 106.99 103.94 109.69 C 101.74 110.12 99.40 110.27 97.23 109.64 C 96.18 108.56 96.00 106.97 95.42 105.64 C 91.46 106.50 87.40 106.50 83.44 105.68 C 82.69 107.24 82.54 110.09 80.17 109.95 C 78.24 109.83 75.35 110.81 74.25 108.70 C 73.93 106.07 74.78 103.48 75.20 100.91 C 72.38 97.56 70.43 93.53 70.02 89.13 C 67.34 88.94 64.66 88.75 61.97 88.85 C 58.36 89.40 55.44 84.08 58.11 81.43 C 59.03 83.74 59.81 86.30 62.13 87.62 C 61.34 84.64 59.49 80.81 62.31 78.31 C 64.05 76.16 67.38 77.50 68.15 79.85 C 69.35 82.24 68.02 84.78 67.19 87.05 C 67.93 86.99 69.42 86.89 70.16 86.83 C 71.49 81.18 75.03 75.90 80.41 73.43 C 85.45 70.84 91.37 70.92 96.69 72.54 Z" />
<path fill="#ffffff" d=" M 97.53 75.23 C 99.72 72.52 102.96 71.40 106.39 71.88 C 104.69 73.83 102.91 75.70 101.15 77.59 C 103.14 79.80 104.57 82.42 106.24 84.86 C 108.18 85.18 110.16 85.16 112.13 85.30 C 112.12 87.71 112.11 90.11 112.08 92.52 C 110.10 92.59 108.12 92.65 106.15 92.70 C 104.85 95.38 103.25 97.90 101.26 100.12 C 101.78 102.84 102.24 105.57 102.66 108.30 C 101.22 108.22 99.79 108.04 98.38 107.76 C 97.86 106.19 97.54 104.57 97.16 102.97 C 92.09 104.43 86.75 104.46 81.68 102.98 C 81.22 104.70 80.77 106.42 80.29 108.14 C 78.88 108.13 77.47 108.11 76.07 108.08 C 76.59 105.44 77.05 102.78 77.51 100.12 C 73.94 96.47 71.40 91.26 72.73 86.07 C 74.00 79.37 80.44 74.70 86.97 73.93 C 90.55 73.39 94.09 74.35 97.53 75.23 Z" />
<path fill="#ffffff" d=" M 63.90 79.86 C 64.61 78.43 65.82 79.86 66.19 80.78 C 66.92 82.81 65.61 84.70 64.81 86.47 C 63.68 84.52 61.58 81.80 63.90 79.86 Z" />
<path fill="#cc0101" d=" M 99.38 83.61 C 101.15 81.90 104.13 84.50 102.37 86.36 C 100.66 88.59 97.17 85.30 99.38 83.61 Z" />
<path fill="#cc0101" d=" M 177.18 83.29 C 179.86 82.67 183.20 82.62 185.18 84.87 C 187.40 86.87 187.33 90.23 186.68 92.91 C 184.79 98.02 176.77 98.61 173.94 94.07 C 171.78 90.48 172.90 84.75 177.18 83.29 Z" />
<path fill="#cc0101" d=" M 197.20 83.28 C 199.84 82.69 203.13 82.62 205.10 84.80 C 207.40 86.80 207.36 90.23 206.67 92.94 C 204.75 98.05 196.71 98.60 193.91 94.03 C 191.68 90.43 192.96 84.74 197.20 83.28 Z" />
<path fill="#cc0101" d=" M 217.22 83.28 C 219.65 82.77 222.61 82.58 224.60 84.35 C 227.37 86.44 227.80 90.58 226.37 93.56 C 224.05 98.15 216.55 98.37 213.89 94.00 C 211.68 90.40 212.97 84.72 217.22 83.28 Z" />
<path fill="#cc0101" d=" M 9.00 85.00 C 9.50 85.00 10.50 85.00 11.00 85.00 C 11.00 92.67 11.00 100.33 11.00 108.00 C 15.00 108.00 19.00 108.00 23.00 108.00 C 23.00 103.33 23.00 98.67 23.00 94.00 C 27.00 94.00 31.00 94.00 35.00 94.00 C 35.00 98.67 35.00 103.33 35.00 108.00 C 39.00 108.00 43.00 108.00 47.00 108.00 C 47.00 100.33 47.00 92.67 47.00 85.00 C 47.50 85.00 48.50 85.00 49.00 85.00 C 49.00 93.33 49.00 101.67 49.00 110.00 C 43.67 110.00 38.33 110.00 33.00 110.00 C 33.00 105.33 33.00 100.67 33.00 96.00 C 30.33 96.00 27.67 96.00 25.00 96.00 C 25.00 100.67 25.00 105.33 25.00 110.00 C 19.67 110.00 14.33 110.00 9.00 110.00 C 9.00 101.67 9.00 93.33 9.00 85.00 Z" />
<path fill="#ffffff" d=" M 178.17 85.25 C 181.30 83.91 185.28 86.53 185.04 89.98 C 185.34 93.73 180.66 96.43 177.52 94.43 C 173.80 92.64 174.24 86.52 178.17 85.25 Z" />
<path fill="#ffffff" d=" M 198.19 85.24 C 202.08 83.56 206.45 87.90 204.77 91.81 C 203.57 95.46 198.10 96.22 195.95 93.08 C 193.86 90.54 195.09 86.29 198.19 85.24 Z" />
<path fill="#ffffff" d=" M 218.27 85.19 C 222.17 83.63 226.43 87.93 224.77 91.81 C 223.57 95.44 218.17 96.22 215.98 93.13 C 213.83 90.56 215.10 86.24 218.27 85.19 Z" />
</svg>
